<svg width="18" height="18" viewBox="0 0 18 18" fill="currentColor" xmlns="http://www.w3.org/2000/svg">
<path d="M10.7134 7.30028H7.28759V10.7002H10.7134V7.30028Z" fill="currentColor"/>
<path d="M14.1391 2.81618V0.5H3.86131V2.81618C3.86131 3.41495 3.37266 3.89991 2.76935 3.89991H0.435547V14.1001H2.76935C3.37266 14.1001 3.86131 14.5851 3.86131 15.1838V17.5H14.1391V15.1838C14.1391 14.5851 14.6277 14.1001 15.231 14.1001H17.5648V3.89991H15.231C14.6277 3.89991 14.1391 3.41495 14.1391 2.81618ZM14.1391 13.0159C14.1391 13.6147 13.6504 14.0996 13.0471 14.0996H4.95375C4.35043 14.0996 3.86179 13.6147 3.86179 13.0159V4.98363C3.86179 4.38486 4.35043 3.89991 4.95375 3.89991H13.0471C13.6504 3.89991 14.1391 4.38486 14.1391 4.98363V13.0159Z" fill="currentColor"/>
</svg>
